<svg width="24" height="24" viewBox="0 0 24 24" fill="none" xmlns="http://www.w3.org/2000/svg">
<mask id="mask0_15497_667" style="mask-type:alpha" maskUnits="userSpaceOnUse" x="0" y="0" width="24" height="24">
<rect width="24" height="24" fill="#D9D9D9"/>
</mask>
<g mask="url(#mask0_15497_667)">
<path d="M12 21.6537C9.78583 21.6537 7.899 21.3893 6.3395 20.8605C4.77983 20.3317 4 19.5961 4 18.6537C4 18.1974 4.20833 17.7824 4.625 17.4087C5.04167 17.0349 5.60125 16.7327 6.30375 16.502L7.12125 17.2405C6.52892 17.4122 6.02725 17.6214 5.61625 17.8682C5.20542 18.1151 5 18.3769 5 18.6537C5 19.1641 5.65575 19.625 6.96725 20.0365C8.27875 20.448 9.95633 20.6537 12 20.6537C14.0437 20.6537 15.7213 20.448 17.0328 20.0365C18.3442 19.625 19 19.1641 19 18.6537C19 18.3769 18.7946 18.1151 18.3837 17.8682C17.9727 17.6214 17.4711 17.4122 16.8788 17.2405L17.6962 16.502C18.3988 16.7327 18.9583 17.0349 19.375 17.4087C19.7917 17.7824 20 18.1974 20 18.6537C20 19.5961 19.2202 20.3317 17.6605 20.8605C16.101 21.3893 14.2142 21.6537 12 21.6537ZM12 18.1922C11.7487 18.1922 11.5099 18.1458 11.2838 18.053C11.0574 17.96 10.8474 17.8333 10.6537 17.673L4.35375 12.1172C4.23975 12.0109 4.15225 11.8917 4.09125 11.7595C4.03042 11.6275 4 11.4903 4 11.348V9.3865C4 9.23133 4.02208 9.08458 4.06625 8.94625C4.11058 8.80775 4.18975 8.68525 4.30375 8.57875L10.6423 2.6845C10.8231 2.50766 11.0308 2.375 11.2655 2.2865C11.5 2.198 11.7448 2.15375 12 2.15375C12.2552 2.15375 12.5 2.198 12.7345 2.2865C12.9692 2.375 13.1769 2.50766 13.3577 2.6845L19.6962 8.57875C19.8103 8.68525 19.8894 8.80775 19.9337 8.94625C19.9779 9.08458 20 9.23133 20 9.3865V11.348C20 11.4903 19.9696 11.6275 19.9087 11.7595C19.8477 11.8917 19.7603 12.0109 19.6462 12.1172L13.3462 17.673C13.1526 17.8333 12.9426 17.96 12.7163 18.053C12.4901 18.1458 12.2513 18.1922 12 18.1922ZM9 10.25C9.29867 10.25 9.54967 10.1484 9.753 9.94525C9.95617 9.74208 10.0578 9.49108 10.0578 9.19225C10.0578 8.89358 9.95617 8.64266 9.753 8.4395C9.54967 8.23616 9.29867 8.1345 9 8.1345C8.70133 8.1345 8.45033 8.23616 8.247 8.4395C8.04383 8.64266 7.94225 8.89358 7.94225 9.19225C7.94225 9.49108 8.04383 9.74208 8.247 9.94525C8.45033 10.1484 8.70133 10.25 9 10.25ZM10.5963 11.7155C11.2488 11.9757 11.9228 12.0401 12.6183 11.9087C13.3138 11.7772 13.9295 11.4769 14.4655 11.0077C14.9552 10.5756 15.2843 10.0442 15.453 9.4135C15.6215 8.78266 15.5948 8.1615 15.373 7.55L10.5963 11.7155ZM12 7.25C12.2987 7.25 12.5497 7.14841 12.753 6.94525C12.9562 6.74208 13.0577 6.49108 13.0577 6.19225C13.0577 5.89358 12.9562 5.64266 12.753 5.4395C12.5497 5.23616 12.2987 5.1345 12 5.1345C11.7013 5.1345 11.4503 5.23616 11.247 5.4395C11.0438 5.64266 10.9423 5.89358 10.9423 6.19225C10.9423 6.49108 11.0438 6.74208 11.247 6.94525C11.4503 7.14841 11.7013 7.25 12 7.25Z" fill="url(#paint0_linear_15497_667)"/>
</g>
<defs>
<linearGradient id="paint0_linear_15497_667" x1="4" y1="11.9037" x2="19.8629" y2="11.9037" gradientUnits="userSpaceOnUse">
<stop offset="0.153846" stop-color="#6C5ABD"/>
<stop offset="1" stop-color="#CE8302"/>
</linearGradient>
</defs>
</svg>
