<svg width="15" height="15" viewBox="0 0 15 15" fill="none" xmlns="http://www.w3.org/2000/svg">
<path d="M8.33333 9.61542C8.50528 9.61542 8.65674 9.55 8.78771 9.41917C8.91854 9.2882 8.98396 9.13674 8.98396 8.96479C8.98396 8.96479 8.98396 8.96479 8.98396 8.96479C8.98396 8.79271 8.91854 8.64125 8.78771 8.51042C8.65674 8.37958 8.50528 8.31417 8.33333 8.31417C8.16139 8.31417 8.00993 8.37958 7.87896 8.51042C7.74813 8.64125 7.68271 8.79271 7.68271 8.96479C7.68271 9.13674 7.74813 9.2882 7.87896 9.41917C8.00993 9.55 8.16139 9.61542 8.33333 9.61542ZM7.96479 7.26917H8.70188C8.72326 6.91986 8.77833 6.65681 8.86708 6.48C8.9557 6.30319 9.16882 6.05667 9.50646 5.74042C9.85896 5.41986 10.1047 5.13382 10.2435 4.88229C10.3824 4.63062 10.4519 4.34188 10.4519 4.01604C10.4519 3.45507 10.2518 2.98736 9.85167 2.61292C9.45167 2.23847 8.94556 2.05125 8.33333 2.05125C7.87069 2.05125 7.45965 2.17625 7.10021 2.42625C6.74063 2.67625 6.46681 3.01708 6.27875 3.44875L6.95521 3.74687C7.11215 3.4209 7.30361 3.17646 7.52958 3.01354C7.75556 2.85063 8.02347 2.76917 8.33333 2.76917C8.73083 2.76917 9.06042 2.88694 9.32208 3.1225C9.58389 3.35819 9.71479 3.66243 9.71479 4.03521C9.71479 4.26174 9.65118 4.4725 9.52396 4.6675C9.39688 4.8625 9.1784 5.09729 8.86854 5.37187C8.51701 5.6784 8.27854 5.95965 8.15312 6.21562C8.02757 6.47146 7.96479 6.82264 7.96479 7.26917ZM3.84625 11.6667C3.46264 11.6667 3.14236 11.5382 2.88542 11.2813C2.62847 11.0243 2.5 10.704 2.5 10.3204V1.34625C2.5 0.962639 2.62847 0.642361 2.88542 0.385417C3.14236 0.128472 3.46264 0 3.84625 0H12.8204C13.204 0 13.5243 0.128472 13.7813 0.385417C14.0382 0.642361 14.1667 0.962639 14.1667 1.34625V10.3204C14.1667 10.704 14.0382 11.0243 13.7813 11.2813C13.5243 11.5382 13.204 11.6667 12.8204 11.6667H3.84625ZM3.84625 10.8333H12.8204C12.9488 10.8333 13.0663 10.7799 13.1731 10.6731C13.2799 10.5663 13.3333 10.4488 13.3333 10.3204V1.34625C13.3333 1.21792 13.2799 1.10035 13.1731 0.993542C13.0663 0.886736 12.9488 0.833333 12.8204 0.833333H3.84625C3.71792 0.833333 3.60035 0.886736 3.49354 0.993542C3.38674 1.10035 3.33333 1.21792 3.33333 1.34625V10.3204C3.33333 10.4488 3.38674 10.5663 3.49354 10.6731C3.60035 10.7799 3.71792 10.8333 3.84625 10.8333ZM1.34625 14.1667C0.962639 14.1667 0.642361 14.0382 0.385417 13.7813C0.128472 13.5243 0 13.2041 0 12.8206V3.01292H0.833333V12.8206C0.833333 12.9488 0.886736 13.0663 0.993542 13.1731C1.10035 13.2799 1.21792 13.3333 1.34625 13.3333H11.1538V14.1667H1.34625Z" fill="currentColor"/>
</svg>
