<svg width="18" height="21" viewBox="0 0 18 21" fill="none" xmlns="http://www.w3.org/2000/svg">
<path d="M11.74 7.50052L11.394 16.5005M6.606 16.5005L6.26 7.50052M12.75 3.89352C13.9138 3.98362 15.0739 4.11604 16.228 4.29052C16.57 4.34252 16.91 4.39752 17.25 4.45652M16.228 4.29052L15.16 18.1735C15.1164 18.7387 14.8611 19.2667 14.445 19.6518C14.029 20.0368 13.4829 20.2507 12.916 20.2505H5.084C4.5171 20.2507 3.97102 20.0368 3.55498 19.6518C3.13894 19.2667 2.88359 18.7387 2.84 18.1735L1.772 4.29052M1.772 4.29052C1.43 4.34152 1.09 4.39652 0.75 4.45552M1.772 4.29052C2.92613 4.11604 4.08623 3.98362 5.25 3.89352M12.75 3.89352V2.97752C12.75 1.79752 11.84 0.813521 10.66 0.776521C9.55362 0.74116 8.44638 0.74116 7.34 0.776521C6.16 0.813521 5.25 1.79852 5.25 2.97752V3.89352M12.75 3.89352C10.2537 3.7006 7.74628 3.7006 5.25 3.89352" stroke="#D1D5DB" stroke-width="1.5" stroke-linecap="round" stroke-linejoin="round"/>
</svg>
