<svg width="13" height="14" viewBox="0 0 13 14" fill="none" xmlns="http://www.w3.org/2000/svg">
<path d="M6.17737 8.74463C6.86975 8.74463 7.46688 8.52112 7.96875 8.07413C8.47062 7.627 8.72156 7.08031 8.72156 6.43406C8.72156 5.88506 8.54875 5.41656 8.20312 5.02856C7.8575 4.64056 7.427 4.44656 6.91162 4.44656C6.47787 4.44656 6.10356 4.58844 5.78869 4.87219C5.47381 5.15581 5.31638 5.5005 5.31638 5.90625C5.31638 6.086 5.35363 6.25956 5.42813 6.42694C5.50262 6.59419 5.60813 6.75237 5.74463 6.9015L6.32306 6.38081C6.23744 6.31731 6.17325 6.24756 6.1305 6.17156C6.08775 6.09569 6.06637 6.0135 6.06637 5.925C6.06637 5.749 6.13944 5.58675 6.28556 5.43825C6.43169 5.28962 6.64038 5.21531 6.91162 5.21531C7.2 5.21531 7.4495 5.32806 7.66012 5.55356C7.87063 5.77906 7.97588 6.07881 7.97588 6.45281C7.97588 6.86919 7.80931 7.231 7.47619 7.53825C7.14306 7.8455 6.71638 7.99912 6.19613 7.99912C5.599 7.99912 5.08531 7.76162 4.65506 7.28662C4.22481 6.81163 4.00969 6.21594 4.00969 5.49956C4.00969 5.13706 4.08081 4.78775 4.22306 4.45162C4.36544 4.11562 4.57119 3.813 4.84031 3.54375L4.29094 3.00863C3.95819 3.3385 3.7 3.71637 3.51638 4.14225C3.33275 4.56825 3.24094 5.01444 3.24094 5.48081C3.24094 6.37881 3.52362 7.14731 4.089 7.78631C4.65437 8.42519 5.3505 8.74463 6.17737 8.74463ZM2.25 13.5V10.6789C1.5375 10.0289 0.984375 9.29831 0.590625 8.48719C0.196875 7.67619 0 6.84231 0 5.98556C0 4.32206 0.584125 2.90863 1.75238 1.74525C2.92063 0.58175 4.3365 0 6 0C7.351 0 8.57194 0.411312 9.66281 1.23394C10.7537 2.05656 11.4611 3.11881 11.7851 4.42069L12.5582 7.5C12.6111 7.68937 12.5769 7.86175 12.4558 8.01713C12.3347 8.17237 12.1731 8.25 11.9711 8.25H10.5V10.7884C10.5 11.124 10.382 11.4099 10.146 11.646C9.90987 11.882 9.624 12 9.28838 12H7.5V13.5H6.75V11.25H9.28838C9.423 11.25 9.53363 11.2068 9.62025 11.1203C9.70675 11.0336 9.75 10.923 9.75 10.7884V7.5H11.775L11.0625 4.59375C10.775 3.44662 10.1577 2.51925 9.21056 1.81163C8.26344 1.10387 7.19325 0.75 6 0.75C4.55 0.75 3.3125 1.25863 2.2875 2.27588C1.2625 3.29325 0.75 4.52694 0.75 5.97694C0.75 6.72694 0.903125 7.437 1.20938 8.10713C1.51563 8.77738 1.95 9.375 2.5125 9.9L3 10.35V13.5H2.25Z" fill="currentColor"/>
</svg>
