<svg width="16" height="18" viewBox="0 0 16 18" fill="none" xmlns="http://www.w3.org/2000/svg">
<path d="M9.90858 6.37543L9.62024 13.8754M5.63024 13.8754L5.34191 6.37543M10.7502 3.3696C11.72 3.44468 12.6868 3.55503 13.6486 3.70043C13.9336 3.74377 14.2169 3.7896 14.5002 3.83877M13.6486 3.70043L12.7586 15.2696C12.7223 15.7406 12.5095 16.1806 12.1628 16.5015C11.8161 16.8224 11.361 17.0006 10.8886 17.0004H4.36191C3.88949 17.0006 3.43443 16.8224 3.08773 16.5015C2.74102 16.1806 2.52823 15.7406 2.49191 15.2696L1.60191 3.70043M1.60191 3.70043C1.31691 3.74293 1.03358 3.78877 0.750244 3.83793M1.60191 3.70043C2.56369 3.55503 3.53044 3.44468 4.50024 3.3696M10.7502 3.3696V2.60627C10.7502 1.62293 9.99191 0.802934 9.00858 0.772101C8.08659 0.742633 7.1639 0.742633 6.24191 0.772101C5.25858 0.802934 4.50024 1.62377 4.50024 2.60627V3.3696M10.7502 3.3696C8.67001 3.20883 6.58048 3.20883 4.50024 3.3696" stroke="#FF7F7F" stroke-width="1.5" stroke-linecap="round" stroke-linejoin="round"/>
</svg>
