<svg width="20" height="20" viewBox="0 0 20 20" fill="none" xmlns="http://www.w3.org/2000/svg">
<mask id="mask0_15497_638" style="mask-type:alpha" maskUnits="userSpaceOnUse" x="0" y="0" width="20" height="20">
<rect width="20" height="20" fill="#D9D9D9"/>
</mask>
<g mask="url(#mask0_15497_638)">
<path d="M9.99984 12.9808L7.05109 10.0321L7.64088 9.4327L9.58317 11.375V4.16666H10.4165V11.375L12.3588 9.4327L12.9486 10.0321L9.99984 12.9808ZM5.51275 15.8333C5.12914 15.8333 4.80887 15.7049 4.55192 15.4479C4.29498 15.191 4.1665 14.8707 4.1665 14.4871V12.4679H4.99984V14.4871C4.99984 14.6154 5.05324 14.733 5.16005 14.8398C5.26685 14.9466 5.38442 15 5.51275 15H14.4869C14.6153 15 14.7328 14.9466 14.8396 14.8398C14.9464 14.733 14.9998 14.6154 14.9998 14.4871V12.4679H15.8332V14.4871C15.8332 14.8707 15.7047 15.191 15.4478 15.4479C15.1908 15.7049 14.8705 15.8333 14.4869 15.8333H5.51275Z" fill="currentColor"/>
</g>
</svg>
